<svg width="166" height="140" viewBox="0 0 166 140" fill="none" xmlns="http://www.w3.org/2000/svg">
<path d="M89.9443 69.9971C89.9443 93.4378 86.2334 110.941 78.8115 122.507C71.4515 134.073 60.1641 139.855 44.9492 139.855C30.3529 139.855 19.251 133.949 11.6436 122.136C4.03613 110.261 0.232422 92.8812 0.232422 69.9971C0.232422 46.3708 3.91243 28.8366 11.2725 17.3945C18.6325 5.95247 29.8581 0.231445 44.9492 0.231445C59.6693 0.231445 70.833 6.19987 78.4404 18.1367C86.1097 30.0736 89.9443 47.3604 89.9443 69.9971ZM15.8184 69.9971C15.8184 89.7269 18.1377 104.107 22.7764 113.137C27.415 122.105 34.806 126.589 44.9492 126.589C55.2161 126.589 62.638 122.043 67.2148 112.951C71.8535 103.798 74.1729 89.4795 74.1729 69.9971C74.1729 50.5146 71.8535 36.2585 67.2148 27.2285C62.638 18.1367 55.2161 13.5908 44.9492 13.5908C34.806 13.5908 27.415 18.0749 22.7764 27.043C18.1377 35.9492 15.8184 50.2673 15.8184 69.9971ZM165.833 138H150.804V41.3301C150.804 33.2897 151.051 25.6823 151.546 18.5078C150.247 19.8066 148.794 21.1673 147.186 22.5898C145.577 24.0124 138.217 30.0426 125.105 40.6807L116.941 30.1045L152.845 2.36523H165.833V138Z" fill="black" fill-opacity="0.1"/>
</svg>
