<svg width="198" height="140" viewBox="0 0 198 140" fill="none" xmlns="http://www.w3.org/2000/svg">
<path d="M89.9443 69.9971C89.9443 93.4378 86.2334 110.941 78.8115 122.507C71.4515 134.073 60.1641 139.855 44.9492 139.855C30.3529 139.855 19.251 133.949 11.6436 122.136C4.03613 110.261 0.232422 92.8812 0.232422 69.9971C0.232422 46.3708 3.91243 28.8366 11.2725 17.3945C18.6325 5.95247 29.8581 0.231445 44.9492 0.231445C59.6693 0.231445 70.833 6.19987 78.4404 18.1367C86.1097 30.0736 89.9443 47.3604 89.9443 69.9971ZM15.8184 69.9971C15.8184 89.7269 18.1377 104.107 22.7764 113.137C27.415 122.105 34.806 126.589 44.9492 126.589C55.2161 126.589 62.638 122.043 67.2148 112.951C71.8535 103.798 74.1729 89.4795 74.1729 69.9971C74.1729 50.5146 71.8535 36.2585 67.2148 27.2285C62.638 18.1367 55.2161 13.5908 44.9492 13.5908C34.806 13.5908 27.415 18.0749 22.7764 27.043C18.1377 35.9492 15.8184 50.2673 15.8184 69.9971ZM197.933 138H108.777V124.733L144.495 88.8301C155.381 77.821 162.555 69.9661 166.019 65.2656C169.482 60.5651 172.08 55.9883 173.812 51.5352C175.543 47.082 176.409 42.2887 176.409 37.1553C176.409 29.9189 174.214 24.1979 169.822 19.9922C165.431 15.7246 159.339 13.5908 151.546 13.5908C145.918 13.5908 140.568 14.5186 135.496 16.374C130.486 18.2295 124.889 21.6003 118.704 26.4863L110.54 16.0029C123.034 5.6123 136.64 0.416992 151.36 0.416992C164.101 0.416992 174.09 3.69499 181.326 10.251C188.562 16.7451 192.181 25.4967 192.181 36.5059C192.181 45.1029 189.769 53.6071 184.944 62.0186C180.12 70.43 171.09 81.068 157.854 93.9326L128.167 122.971V123.713H197.933V138Z" fill="white" fill-opacity="0.1"/>
</svg>
