<svg width="198" height="140" viewBox="0 0 198 140" fill="none" xmlns="http://www.w3.org/2000/svg">
<path d="M90.4443 69.9971C90.4443 93.4378 86.7334 110.941 79.3115 122.507C71.9515 134.073 60.6641 139.855 45.4492 139.855C30.8529 139.855 19.751 133.949 12.1436 122.136C4.53613 110.261 0.732422 92.8812 0.732422 69.9971C0.732422 46.3708 4.41243 28.8366 11.7725 17.3945C19.1325 5.95247 30.3581 0.231445 45.4492 0.231445C60.1693 0.231445 71.333 6.19987 78.9404 18.1367C86.6097 30.0736 90.4443 47.3604 90.4443 69.9971ZM16.3184 69.9971C16.3184 89.7269 18.6377 104.107 23.2764 113.137C27.915 122.105 35.306 126.589 45.4492 126.589C55.7161 126.589 63.138 122.043 67.7148 112.951C72.3535 103.798 74.6729 89.4795 74.6729 69.9971C74.6729 50.5146 72.3535 36.2585 67.7148 27.2285C63.138 18.1367 55.7161 13.5908 45.4492 13.5908C35.306 13.5908 27.915 18.0749 23.2764 27.043C18.6377 35.9492 16.3184 50.2673 16.3184 69.9971ZM193.33 34.2793C193.33 42.9382 190.887 50.0199 186.001 55.5244C181.177 61.029 174.312 64.709 165.405 66.5645V67.3066C176.291 68.6673 184.362 72.1309 189.619 77.6973C194.876 83.2637 197.505 90.5618 197.505 99.5918C197.505 112.518 193.021 122.476 184.053 129.465C175.085 136.392 162.344 139.855 145.83 139.855C138.656 139.855 132.069 139.299 126.069 138.186C120.132 137.134 114.349 135.248 108.721 132.526V117.868C114.596 120.775 120.843 123.002 127.461 124.548C134.141 126.032 140.449 126.774 146.387 126.774C169.827 126.774 181.548 117.59 181.548 99.2207C181.548 82.7689 168.621 74.543 142.769 74.543H129.409V61.2764H142.954C153.53 61.2764 161.911 58.957 168.096 54.3184C174.281 49.6178 177.373 43.1237 177.373 34.8359C177.373 28.2181 175.085 23.0228 170.508 19.25C165.993 15.4772 159.839 13.5908 152.046 13.5908C146.108 13.5908 140.511 14.3949 135.254 16.0029C129.997 17.611 123.997 20.5798 117.256 24.9092L109.463 14.5186C115.029 10.1273 121.431 6.69466 128.667 4.2207C135.965 1.6849 143.634 0.416992 151.675 0.416992C164.849 0.416992 175.085 3.44759 182.383 9.50879C189.681 15.5081 193.33 23.765 193.33 34.2793Z" fill="black" fill-opacity="0.1"/>
</svg>
