<svg width="198" height="140" viewBox="0 0 198 140" fill="none" xmlns="http://www.w3.org/2000/svg">
<path d="M90.4443 69.9971C90.4443 93.4378 86.7334 110.941 79.3115 122.507C71.9515 134.073 60.6641 139.855 45.4492 139.855C30.8529 139.855 19.751 133.949 12.1436 122.136C4.53613 110.261 0.732422 92.8812 0.732422 69.9971C0.732422 46.3708 4.41243 28.8366 11.7725 17.3945C19.1325 5.95247 30.3581 0.231445 45.4492 0.231445C60.1693 0.231445 71.333 6.19987 78.9404 18.1367C86.6097 30.0736 90.4443 47.3604 90.4443 69.9971ZM16.3184 69.9971C16.3184 89.7269 18.6377 104.107 23.2764 113.137C27.915 122.105 35.306 126.589 45.4492 126.589C55.7161 126.589 63.138 122.043 67.7148 112.951C72.3535 103.798 74.6729 89.4795 74.6729 69.9971C74.6729 50.5146 72.3535 36.2585 67.7148 27.2285C63.138 18.1367 55.7161 13.5908 45.4492 13.5908C35.306 13.5908 27.915 18.0749 23.2764 27.043C18.6377 35.9492 16.3184 50.2673 16.3184 69.9971ZM151.675 55.1533C165.962 55.1533 177.188 58.7096 185.352 65.8223C193.577 72.873 197.69 82.5524 197.69 94.8604C197.69 108.9 193.206 119.909 184.238 127.888C175.332 135.866 163.024 139.855 147.314 139.855C132.038 139.855 120.379 137.412 112.339 132.526V117.683C116.668 120.466 122.049 122.661 128.481 124.27C134.914 125.816 141.253 126.589 147.5 126.589C158.385 126.589 166.828 124.022 172.827 118.889C178.888 113.755 181.919 106.333 181.919 96.623C181.919 77.6973 170.322 68.2344 147.129 68.2344C141.253 68.2344 133.398 69.1312 123.564 70.9248L115.586 65.8223L120.688 2.36523H188.135V16.5596H133.862L130.43 57.2871C137.542 55.8646 144.624 55.1533 151.675 55.1533Z" fill="black" fill-opacity="0.1"/>
</svg>
