<svg width="199" height="140" viewBox="0 0 199 140" fill="none" xmlns="http://www.w3.org/2000/svg">
<path d="M89.9443 69.9971C89.9443 93.4378 86.2334 110.941 78.8115 122.507C71.4515 134.073 60.1641 139.855 44.9492 139.855C30.3529 139.855 19.251 133.949 11.6436 122.136C4.03613 110.261 0.232422 92.8812 0.232422 69.9971C0.232422 46.3708 3.91243 28.8366 11.2725 17.3945C18.6325 5.95247 29.8581 0.231445 44.9492 0.231445C59.6693 0.231445 70.833 6.19987 78.4404 18.1367C86.1097 30.0736 89.9443 47.3604 89.9443 69.9971ZM15.8184 69.9971C15.8184 89.7269 18.1377 104.107 22.7764 113.137C27.415 122.105 34.806 126.589 44.9492 126.589C55.2161 126.589 62.638 122.043 67.2148 112.951C71.8535 103.798 74.1729 89.4795 74.1729 69.9971C74.1729 50.5146 71.8535 36.2585 67.2148 27.2285C62.638 18.1367 55.2161 13.5908 44.9492 13.5908C34.806 13.5908 27.415 18.0749 22.7764 27.043C18.1377 35.9492 15.8184 50.2673 15.8184 69.9971ZM110.354 80.0166C110.354 53.3597 115.519 33.4443 125.848 20.2705C136.238 7.03483 151.577 0.416992 171.863 0.416992C178.852 0.416992 184.357 1.00456 188.377 2.17969V15.4463C183.615 13.9001 178.172 13.127 172.049 13.127C157.514 13.127 146.412 17.6729 138.743 26.7646C131.074 35.7946 126.868 50.0199 126.126 69.4404H127.239C134.043 58.8024 144.804 53.4834 159.524 53.4834C171.709 53.4834 181.295 57.1634 188.284 64.5234C195.335 71.8835 198.86 81.8721 198.86 94.4893C198.86 108.591 194.995 119.693 187.264 127.795C179.594 135.835 169.204 139.855 156.092 139.855C142.052 139.855 130.919 134.598 122.693 124.084C114.467 113.508 110.354 98.8187 110.354 80.0166ZM155.906 126.774C164.689 126.774 171.492 124.022 176.316 118.518C181.202 112.951 183.646 104.942 183.646 94.4893C183.646 85.5212 181.388 78.4704 176.873 73.3369C172.358 68.2035 165.617 65.6367 156.648 65.6367C151.082 65.6367 145.979 66.7809 141.341 69.0693C136.702 71.3577 132.991 74.512 130.208 78.5322C127.487 82.5524 126.126 86.7272 126.126 91.0566C126.126 97.4271 127.363 103.365 129.837 108.869C132.311 114.374 135.805 118.734 140.32 121.95C144.897 125.166 150.092 126.774 155.906 126.774Z" fill="white" fill-opacity="0.1"/>
</svg>
