<svg width="199" height="140" viewBox="0 0 199 140" fill="none" xmlns="http://www.w3.org/2000/svg">
<path d="M90.4443 69.9971C90.4443 93.4378 86.7334 110.941 79.3115 122.507C71.9515 134.073 60.6641 139.855 45.4492 139.855C30.8529 139.855 19.751 133.949 12.1436 122.136C4.53613 110.261 0.732422 92.8812 0.732422 69.9971C0.732422 46.3708 4.41243 28.8366 11.7725 17.3945C19.1325 5.95247 30.3581 0.231445 45.4492 0.231445C60.1693 0.231445 71.333 6.19987 78.9404 18.1367C86.6097 30.0736 90.4443 47.3604 90.4443 69.9971ZM16.3184 69.9971C16.3184 89.7269 18.6377 104.107 23.2764 113.137C27.915 122.105 35.306 126.589 45.4492 126.589C55.7161 126.589 63.138 122.043 67.7148 112.951C72.3535 103.798 74.6729 89.4795 74.6729 69.9971C74.6729 50.5146 72.3535 36.2585 67.7148 27.2285C63.138 18.1367 55.7161 13.5908 45.4492 13.5908C35.306 13.5908 27.915 18.0749 23.2764 27.043C18.6377 35.9492 16.3184 50.2673 16.3184 69.9971ZM126.44 138L182.661 16.5596H108.721V2.36523H198.989V14.7041L143.511 138H126.44Z" fill="black" fill-opacity="0.1"/>
</svg>
